{
	"asset":{
		"generator":"Khronos glTF Blender I/O v4.5.47",
		"version":"2.0"
	},
	"scene":0,
	"scenes":[
		{
			"name":"World",
			"nodes":[
				0
			]
		}
	],
	"nodes":[
		{
			"mesh":0,
			"name":"Mesh_0.001"
		}
	],
	"materials":[
		{
			"name":"Material_0.001",
			"pbrMetallicRoughness":{
				"metallicFactor":0
			}
		}
	],
	"meshes":[
		{
			"name":"navmesh",
			"primitives":[
				{
					"attributes":{
						"POSITION":0,
						"NORMAL":1
					},
					"indices":2,
					"material":0
				}
			]
		}
	],
	"accessors":[
		{
			"bufferView":0,
			"componentType":5126,
			"count":262,
			"max":[
				12.101081848144531,
				3.03784441947937,
				7.877496242523193
			],
			"min":[
				-12.098918914794922,
				0.03784440457820892,
				-7.92250394821167
			],
			"type":"VEC3"
		},
		{
			"bufferView":1,
			"componentType":5126,
			"count":262,
			"type":"VEC3"
		},
		{
			"bufferView":2,
			"componentType":5123,
			"count":735,
			"type":"SCALAR"
		}
	],
	"bufferViews":[
		{
			"buffer":0,
			"byteLength":3144,
			"byteOffset":0,
			"target":34962
		},
		{
			"buffer":0,
			"byteLength":3144,
			"byteOffset":3144,
			"target":34962
		},
		{
			"buffer":0,
			"byteLength":1470,
			"byteOffset":6288,
			"target":34963
		}
	],
	"buffers":[
		{
			"byteLength":7760,
			"uri":"navmesh.bin"
		}
	]
}
