{
	"asset":{
		"generator":"Khronos glTF Blender I/O v4.5.48",
		"version":"2.0"
	},
	"scene":0,
	"scenes":[
		{
			"name":"World",
			"nodes":[
				0
			]
		}
	],
	"nodes":[
		{
			"mesh":0,
			"name":"Cube.001",
			"scale":[
				0.14593398571014404,
				0.14593398571014404,
				0.14593398571014404
			],
			"translation":[
				0,
				0.1759265959262848,
				0
			]
		}
	],
	"materials":[
		{
			"doubleSided":true,
			"name":"Material.002",
			"pbrMetallicRoughness":{
				"baseColorFactor":[
					0.08001189678907394,
					0.08001189678907394,
					0.08001189678907394,
					1
				],
				"metallicFactor":0,
				"roughnessFactor":0.5
			}
		},
		{
			"doubleSided":true,
			"name":"Material",
			"pbrMetallicRoughness":{
				"baseColorFactor":[
					0.800000011920929,
					0.800000011920929,
					0.800000011920929,
					1
				],
				"metallicFactor":0,
				"roughnessFactor":0.4000000059604645
			}
		},
		{
			"doubleSided":true,
			"name":"Material.001",
			"pbrMetallicRoughness":{
				"baseColorFactor":[
					0.02303105778992176,
					0.10994847863912582,
					0.334315687417984,
					1
				],
				"metallicFactor":0,
				"roughnessFactor":0.5
			}
		},
		{
			"doubleSided":true,
			"name":"Material.003",
			"pbrMetallicRoughness":{
				"baseColorFactor":[
					0.18446935713291168,
					0.18446935713291168,
					0.18446935713291168,
					1
				],
				"metallicFactor":0
			}
		}
	],
	"meshes":[
		{
			"name":"Cube.001",
			"primitives":[
				{
					"attributes":{
						"POSITION":0,
						"NORMAL":1,
						"TEXCOORD_0":2
					},
					"indices":3,
					"material":0
				},
				{
					"attributes":{
						"POSITION":4,
						"NORMAL":5,
						"TEXCOORD_0":6
					},
					"indices":7,
					"material":1
				},
				{
					"attributes":{
						"POSITION":8,
						"NORMAL":9,
						"TEXCOORD_0":10
					},
					"indices":11,
					"material":2
				},
				{
					"attributes":{
						"POSITION":12,
						"NORMAL":13,
						"TEXCOORD_0":14
					},
					"indices":15,
					"material":3
				}
			]
		}
	],
	"accessors":[
		{
			"bufferView":0,
			"componentType":5126,
			"count":398,
			"max":[
				0.5827226042747498,
				1.8461453914642334,
				1.2729606628417969
			],
			"min":[
				-0.5827226042747498,
				-0.562362790107727,
				-1.2729606628417969
			],
			"type":"VEC3"
		},
		{
			"bufferView":1,
			"componentType":5126,
			"count":398,
			"type":"VEC3"
		},
		{
			"bufferView":2,
			"componentType":5126,
			"count":398,
			"type":"VEC2"
		},
		{
			"bufferView":3,
			"componentType":5123,
			"count":696,
			"type":"SCALAR"
		},
		{
			"bufferView":4,
			"componentType":5126,
			"count":373,
			"max":[
				0.5522038340568542,
				1.4302126169204712,
				1.6177605390548706
			],
			"min":[
				-0.5522038340568542,
				-1,
				-1.6177605390548706
			],
			"type":"VEC3"
		},
		{
			"bufferView":5,
			"componentType":5126,
			"count":373,
			"type":"VEC3"
		},
		{
			"bufferView":6,
			"componentType":5126,
			"count":373,
			"type":"VEC2"
		},
		{
			"bufferView":7,
			"componentType":5123,
			"count":606,
			"type":"SCALAR"
		},
		{
			"bufferView":8,
			"componentType":5126,
			"count":130,
			"max":[
				0.6044262647628784,
				0.9925754070281982,
				0.8520633578300476
			],
			"min":[
				-0.6044262647628784,
				-0.562362790107727,
				-0.8520633578300476
			],
			"type":"VEC3"
		},
		{
			"bufferView":9,
			"componentType":5126,
			"count":130,
			"type":"VEC3"
		},
		{
			"bufferView":10,
			"componentType":5126,
			"count":130,
			"type":"VEC2"
		},
		{
			"bufferView":11,
			"componentType":5123,
			"count":204,
			"type":"SCALAR"
		},
		{
			"bufferView":12,
			"componentType":5126,
			"count":196,
			"max":[
				0.02876904048025608,
				1.8461453914642334,
				1.6177605390548706
			],
			"min":[
				-0.028769133612513542,
				-1,
				-1.6177605390548706
			],
			"type":"VEC3"
		},
		{
			"bufferView":13,
			"componentType":5126,
			"count":196,
			"type":"VEC3"
		},
		{
			"bufferView":14,
			"componentType":5126,
			"count":196,
			"type":"VEC2"
		},
		{
			"bufferView":15,
			"componentType":5123,
			"count":336,
			"type":"SCALAR"
		}
	],
	"bufferViews":[
		{
			"buffer":0,
			"byteLength":4776,
			"byteOffset":0,
			"target":34962
		},
		{
			"buffer":0,
			"byteLength":4776,
			"byteOffset":4776,
			"target":34962
		},
		{
			"buffer":0,
			"byteLength":3184,
			"byteOffset":9552,
			"target":34962
		},
		{
			"buffer":0,
			"byteLength":1392,
			"byteOffset":12736,
			"target":34963
		},
		{
			"buffer":0,
			"byteLength":4476,
			"byteOffset":14128,
			"target":34962
		},
		{
			"buffer":0,
			"byteLength":4476,
			"byteOffset":18604,
			"target":34962
		},
		{
			"buffer":0,
			"byteLength":2984,
			"byteOffset":23080,
			"target":34962
		},
		{
			"buffer":0,
			"byteLength":1212,
			"byteOffset":26064,
			"target":34963
		},
		{
			"buffer":0,
			"byteLength":1560,
			"byteOffset":27276,
			"target":34962
		},
		{
			"buffer":0,
			"byteLength":1560,
			"byteOffset":28836,
			"target":34962
		},
		{
			"buffer":0,
			"byteLength":1040,
			"byteOffset":30396,
			"target":34962
		},
		{
			"buffer":0,
			"byteLength":408,
			"byteOffset":31436,
			"target":34963
		},
		{
			"buffer":0,
			"byteLength":2352,
			"byteOffset":31844,
			"target":34962
		},
		{
			"buffer":0,
			"byteLength":2352,
			"byteOffset":34196,
			"target":34962
		},
		{
			"buffer":0,
			"byteLength":1568,
			"byteOffset":36548,
			"target":34962
		},
		{
			"buffer":0,
			"byteLength":672,
			"byteOffset":38116,
			"target":34963
		}
	],
	"buffers":[
		{
			"byteLength":38788,
			"uri":"medkit.bin"
		}
	]
}
